<svg data-bbox="0 0 50 50" data-type="shape" xmlns="http://www.w3.org/2000/svg" width="50" height="50"
    viewBox="0 0 50 50">
    <g>
        <path
            d="M 25 48.1 c -5.9 0 -11.3 -2.3 -15.4 -5.9 c 2.3 -5.4 7.5 -8.3 15.4 -8.3 c 7.9 0 13.1 3 15.4 8.4 c -4.1 3.7 -9.5 5.8 -15.4 5.8 m 0.3 -35.3 c 4.9 0 8.6 3.8 8.6 8.9 c 0 5.2 -3.9 9.5 -8.6 9.5 s -8.6 -4.2 -8.6 -9.5 c 0 -5.1 3.7 -8.9 8.6 -8.9 M 25 0 C 11.2 0 0 11.2 0 25 c 0 0.9 0.1 1.8 0.2 2.7 c 0 0.3 0.1 0.6 0.1 0.9 c 0.1 0.6 0.2 1.2 0.3 1.8 c 0.1 0.3 0.2 0.7 0.3 1 c 0.1 0.5 0.3 1 0.4 1.5 c 0.1 0.3 0.2 0.7 0.4 1 c 0.2 0.5 0.4 0.9 0.6 1.4 c 0.1 0.3 0.3 0.7 0.5 1 c 0.2 0.4 0.5 0.9 0.7 1.3 c 0.2 0.3 0.4 0.6 0.6 0.9 c 0.3 0.4 0.6 0.8 0.9 1.2 c 0.2 0.3 0.4 0.6 0.6 0.8 c 0.3 0.4 0.7 0.8 1 1.2 c 0.2 0.2 0.4 0.5 0.7 0.7 c 0.4 0.4 0.8 0.8 1.3 1.2 c 0.2 0.2 0.3 0.3 0.5 0.5 l 0 0 A 24.9 24.9 0 0 0 25 50 a 24.9 24.9 0 0 0 16.1 -5.9 a 0.1 0.1 0 0 1 0 0 c 0.2 -0.1 0.3 -0.3 0.5 -0.5 c 0.4 -0.4 0.9 -0.8 1.3 -1.2 c 0.2 -0.2 0.4 -0.5 0.7 -0.7 c 0.4 -0.4 0.7 -0.8 1 -1.2 c 0.2 -0.3 0.4 -0.6 0.6 -0.8 c 0.3 -0.4 0.6 -0.8 0.9 -1.2 a 26.1 26.1 0 0 0 1.7 -3.2 c 0.2 -0.5 0.4 -0.9 0.6 -1.4 c 0.1 -0.3 0.3 -0.7 0.4 -1 c 0.2 -0.5 0.3 -1 0.4 -1.5 c 0.1 -0.3 0.2 -0.7 0.3 -1 c 0.1 -0.6 0.2 -1.2 0.3 -1.8 c 0 -0.3 0.1 -0.6 0.1 -0.9 c 0.1 -0.9 0.2 -1.8 0.2 -2.7 C 50 11.2 38.8 0 25 0">
        </path>
    </g>
</svg>